<svg width="895" height="749" viewBox="0 0 895 749" fill="none" xmlns="http://www.w3.org/2000/svg">
<path fill-rule="evenodd" clip-rule="evenodd" d="M820 150C861.421 150 895 116.421 895 75C895 33.5786 861.421 0 820 0C778.579 0 745 33.5786 745 75C745 116.421 778.579 150 820 150ZM32 75C14.3269 75 0 89.3269 0 107V193C0 210.673 14.3269 225 32 225H126.833H220V717C220 734.673 234.327 749 252 749H338C355.673 749 370 734.673 370 717V225H404H407.5H413C414.302 225 415.586 225.078 416.848 225.229C516.058 230.1 595 312.081 595 412.5C595 503.211 530.584 578.877 445 596.249V747.94C613.748 729.286 745 586.221 745 412.5C745 366.212 735.682 322.1 718.818 281.938C705.699 293.197 688.644 300 670 300C628.579 300 595 266.421 595 225C595 197.493 609.808 173.444 631.888 160.392C572.252 107.275 493.645 75 407.5 75C406.332 75 405.165 75.0059 404 75.0178V75H32Z" fill="#1E1E1E"/>
</svg>
